<?xml version="1.0" standalone="yes"?>
<svg xmlns="http://www.w3.org/2000/svg" width="96" height="96">
<path style="fill:#010101; stroke:none;" d="M0 0L0 96L96 96L96 0L0 0z"/>
<path style="fill:#f4bd02; stroke:none;" d="M17 38L34 36C37.5257 27.1564 41.8723 21.9983 50 17C36.6323 -5.06683 5.11467 15.3255 17 38z"/>
<path style="fill:#3bd4e9; stroke:none;" d="M35 36C22.28 34.3925 4.14388 43.8039 15.6528 58.8951C21.269 66.2594 32.8869 64 41 64C48.8793 64 58.348 65.4145 66 63.3873C79.5159 59.8067 86.1048 44.946 82.1998 32C75.1642 8.67479 37.4985 11.6075 35 36z"/>
<path style="fill:#c2ca38; stroke:none;" d="M49 17L50 18L49 17M47 18L48 19L47 18M45 19L46 20L45 19M42 21L43 22L42 21M41 22L42 23L41 22M40 23L41 24L40 23M37 27L38 28L37 27M36 29L37 30L36 29M35 31L36 32L35 31M23 35L24 36L23 35M31 35L32 36L31 35M34 35L35 36L34 35M19 37L20 38L19 37M17 38L18 39L17 38z"/>
<path style="fill:#84e7ec; stroke:none;" d="M13 44L14 45L13 44M68 62L69 63L68 62M30 65L33 72L38 70L38 74L44 74L44 70L49 72L52 65L30 65M60 70L60 74L55 72L54 81L52 81L55 88L60 86L60 90L66 90L66 86L71 88L74 81L72 81L71 72L66 74L66 70L60 70z"/>
<path style="fill:#3bd4e9; stroke:none;" d="M52 78L53 79L52 78M73 78L74 79L73 78z"/>
</svg>
